<?xml version="1.0" encoding="UTF-8"?>
<svg version="1.1" xmlns="http://www.w3.org/2000/svg" width="512" height="512">
<path d="M0 0 C0.59039062 0.5259375 1.18078125 1.051875 1.7890625 1.59375 C15.56097213 14.38661392 25.43154595 32.55986065 31.4375 50.1875 C31.66026611 50.83823486 31.88303223 51.48896973 32.11254883 52.15942383 C36.16716529 65.01388612 37.55941198 77.90610209 37.4375 91.3125 C37.43293793 92.38709473 37.43293793 92.38709473 37.42828369 93.48339844 C37.355998 105.04396818 36.42378816 115.91269827 33 127 C32.79101074 127.70930664 32.58202148 128.41861328 32.36669922 129.14941406 C22.77508134 161.09273473 0.2710371 189.16537007 -29.09326172 205.13867188 C-59.04486597 220.6073485 -94.31459909 225.49353398 -127 216 C-127.72783691 215.79101074 -128.45567383 215.58202148 -129.20556641 215.36669922 C-150.08934627 209.1476838 -167.2058576 197.85203566 -183 183 C-183.88558594 182.21109375 -183.88558594 182.21109375 -184.7890625 181.40625 C-207.55545887 160.25831783 -219.39035097 127.61218361 -220.92553711 97.13061523 C-221.62174332 74.44971055 -216.91658204 53.32122852 -207 33 C-206.51660156 32.00484375 -206.03320312 31.0096875 -205.53515625 29.984375 C-199.73895727 18.745208 -191.62156766 9.16845815 -183 0 C-182.4740625 -0.59039062 -181.948125 -1.18078125 -181.40625 -1.7890625 C-160.20997308 -24.60750347 -127.42064385 -36.43126151 -96.89453125 -37.93359375 C-59.38217026 -38.57322277 -27.26391032 -25.63764199 0 0 Z " fill="#FDBF34" transform="translate(348,165)"/>
<path d="M0 0 C3.52158418 1.09612223 5.04210974 2.89292967 7.359375 5.734375 C7.92700195 9.23950195 7.92700195 9.23950195 7.84765625 13.22265625 C7.84058151 13.92585495 7.83350677 14.62905365 7.82621765 15.3535614 C7.79836712 17.58577727 7.7356582 19.81542577 7.671875 22.046875 C7.64677951 23.56571881 7.62396852 25.0846022 7.60351562 26.60351562 C7.54857507 30.31462748 7.46237239 34.02425041 7.359375 37.734375 C8.18246407 37.73160962 9.00555313 37.72884424 9.85358429 37.72599506 C29.99060586 37.65940057 50.12760814 37.60993302 70.2647171 37.57893848 C80.00334152 37.56354685 89.7418919 37.54260699 99.48046875 37.50805664 C107.9802619 37.47791591 116.48000136 37.45874423 124.97984648 37.45210952 C129.4698728 37.4482385 133.95974572 37.43930733 138.44972229 37.41718483 C187.6843895 37.18431294 234.42112128 44.44585002 274.359375 75.734375 C275.22046875 76.38664062 276.0815625 77.03890625 276.96875 77.7109375 C299.15925686 94.88384567 316.16789903 116.06163093 329.359375 140.734375 C329.69807617 141.36633789 330.03677734 141.99830078 330.38574219 142.64941406 C347.51339215 175.27606598 350.74219845 211.0175358 350.67504883 247.21118164 C350.67182562 250.85266434 350.6956906 254.49337895 350.72070312 258.13476562 C350.72297099 260.47135316 350.72368201 262.80794284 350.72265625 265.14453125 C350.73647087 266.76162743 350.73647087 266.76162743 350.75056458 268.41139221 C350.71648495 273.91788213 350.55370449 278.0215008 347.359375 282.734375 C344.64853953 284.9323497 342.86980328 285.65835377 339.421875 286.171875 C335.5469324 285.61831177 333.40512152 284.14263969 330.359375 281.734375 C328.99354829 279.00272158 329.01655386 276.57993238 328.78125 273.53125 C324.9231774 226.96466552 310.38969444 186.86915972 276.359375 153.734375 C275.66714844 152.991875 275.66714844 152.991875 274.9609375 152.234375 C265.30998673 142.06556833 253.53305706 134.51029237 241.359375 127.734375 C240.75319336 127.39164551 240.14701172 127.04891602 239.52246094 126.69580078 C221.61865499 116.70086475 202.09150962 111.27928224 181.93261719 108.13867188 C179.08068972 107.69058915 176.23246508 107.22811474 173.38671875 106.7421875 C172.48816162 106.59152832 171.58960449 106.44086914 170.66381836 106.28564453 C168.359375 105.734375 168.359375 105.734375 165.734375 103.984375 C164.359375 101.734375 164.359375 101.734375 163.359375 95.734375 C151.974375 96.229375 151.974375 96.229375 140.359375 96.734375 C139.369375 99.044375 138.379375 101.354375 137.359375 103.734375 C133.3224885 106.42563267 130.09973325 106.39968844 125.359375 105.734375 C122.359375 104.109375 122.359375 104.109375 120.359375 101.734375 C120.029375 99.754375 119.699375 97.774375 119.359375 95.734375 C107.974375 96.229375 107.974375 96.229375 96.359375 96.734375 C95.699375 98.384375 95.039375 100.034375 94.359375 101.734375 C91.47376998 104.84474034 89.88548649 105.66624144 85.64506531 106.21539307 C84.18486287 106.2269154 82.72438295 106.21651682 81.2644043 106.18847656 C80.06361992 106.18935272 80.06361992 106.18935272 78.83857727 106.19024658 C76.2031355 106.18746874 73.56883695 106.15639201 70.93359375 106.125 C69.10228595 106.11753652 67.27097014 106.11184409 65.43965149 106.10784912 C60.62753113 106.09260121 55.81589627 106.05332669 51.00396729 106.0090332 C46.09060229 105.9680623 41.17715858 105.94983422 36.26367188 105.9296875 C26.62869333 105.8868316 16.99407459 105.81859048 7.359375 105.734375 C7.38555908 106.70785889 7.41174316 107.68134277 7.4387207 108.68432617 C7.52947521 112.30892802 7.58671401 115.93343027 7.6340332 119.55883789 C7.65912047 121.12541614 7.69319915 122.69187799 7.73657227 124.25805664 C7.79748726 126.51477809 7.82563999 128.76994794 7.84765625 131.02734375 C7.87346268 131.72337204 7.8992691 132.41940033 7.92585754 133.13652039 C7.92805079 136.97128228 7.46743444 138.59754567 5.06323242 141.6418457 C2.25735792 143.81332655 0.08692644 144.82143045 -3.484375 145.06420898 C-10.66043036 143.96651302 -17.49825587 136.53963637 -22.890625 131.984375 C-28.93916017 126.93697669 -35.06548466 122.05835955 -41.3359375 117.2890625 C-45.84256141 113.83444077 -50.22178255 110.2226125 -54.61816406 106.62963867 C-59.02600958 103.03223036 -63.47065165 99.48824529 -67.953125 95.984375 C-69.09128188 95.09001686 -70.2293057 94.19548935 -71.3671875 93.30078125 C-72.99462474 92.02166761 -74.62455882 90.74674587 -76.26464844 89.48388672 C-77.7934828 88.30644905 -79.31105268 87.11442922 -80.828125 85.921875 C-82.11783203 84.92220703 -82.11783203 84.92220703 -83.43359375 83.90234375 C-86.95307505 80.44515415 -88.58643671 77.22455308 -88.765625 72.296875 C-86.34300461 64.62524375 -78.7800515 60.12681305 -72.72265625 55.24609375 C-69.35644845 52.50278372 -66.05582113 49.69290207 -62.765625 46.859375 C-56.62070732 41.57145867 -50.44376424 36.32325237 -44.24951172 31.09326172 C-42.0874181 29.26712923 -39.92702695 27.4389897 -37.7668457 25.6105957 C-36.6862005 24.69607882 -35.6053101 23.78185159 -34.52416992 22.86791992 C-31.19650902 20.05444715 -27.87698433 17.23168645 -24.56176758 14.40356445 C-22.9266308 13.01495231 -21.28283697 11.63728338 -19.63671875 10.26171875 C-17.78870421 8.70283295 -15.96281234 7.11671687 -14.17578125 5.48828125 C-9.51664885 1.41870515 -6.2224819 -0.04066982 0 0 Z " fill="#000101" transform="translate(127.640625,-0.734375)"/>
<path d="M0 0 C5.57894737 3.15789474 5.57894737 3.15789474 7 6 C7.23452585 8.0633836 7.4183185 10.13261392 7.578125 12.203125 C10.61006256 48.79833488 19.3534953 82.28416897 42 112 C42.65871094 112.88042969 43.31742188 113.76085937 43.99609375 114.66796875 C59.4726265 134.47441992 78.72401917 149.54843325 101 161 C102.03898437 161.54011719 103.07796875 162.08023438 104.1484375 162.63671875 C129.74245973 175.17055226 156.93142631 179.08642804 185.15356445 179.20532227 C186.62344622 179.21492907 188.09332539 179.22494065 189.5632019 179.23532104 C193.51063646 179.26207324 197.4580826 179.28324113 201.40555596 179.30332303 C205.54685529 179.32536843 209.68812011 179.3526653 213.82939148 179.37937927 C221.65232673 179.42905774 229.47528139 179.47408747 237.29825419 179.51740164 C246.21255639 179.56698801 255.12682394 179.62182595 264.04109251 179.67708123 C282.36069609 179.79051925 300.68033246 179.89743963 319 180 C318.97381592 179.02651611 318.94763184 178.05303223 318.9206543 177.05004883 C318.82989979 173.42544698 318.77266099 169.80094473 318.7253418 166.17553711 C318.70025453 164.60895886 318.66617585 163.04249701 318.62280273 161.47631836 C318.56188774 159.21959691 318.53373501 156.96442706 318.51171875 154.70703125 C318.48591232 154.01100296 318.4601059 153.31497467 318.43351746 152.59785461 C318.43132421 148.76309272 318.89194056 147.13682933 321.29614258 144.0925293 C324.10201708 141.92104845 326.27244856 140.91294455 329.84375 140.67016602 C337.01980536 141.76786198 343.85763087 149.19473863 349.25 153.75 C355.29853517 158.79739831 361.42485966 163.67601545 367.6953125 168.4453125 C372.20193641 171.89993423 376.58115755 175.5117625 380.97753906 179.10473633 C385.38538458 182.70214464 389.83002665 186.24612971 394.3125 189.75 C395.45065688 190.64435814 396.5886807 191.53888565 397.7265625 192.43359375 C399.35399974 193.71270739 400.98393382 194.98762913 402.62402344 196.25048828 C404.1528578 197.42792595 405.67042768 198.61994578 407.1875 199.8125 C408.04730469 200.47894531 408.90710938 201.14539063 409.79296875 201.83203125 C413.31245005 205.28922085 414.94581171 208.50982192 415.125 213.4375 C412.70237961 221.10913125 405.1394265 225.60756195 399.08203125 230.48828125 C395.71582345 233.23159128 392.41519613 236.04147293 389.125 238.875 C382.98008232 244.16291633 376.80313924 249.41112263 370.60888672 254.64111328 C368.4467931 256.46724577 366.28640195 258.2953853 364.1262207 260.1237793 C363.0455755 261.03829618 361.9646851 261.95252341 360.88354492 262.86645508 C357.55588402 265.67992785 354.23635933 268.50268855 350.92114258 271.33081055 C349.2860058 272.71942269 347.64221197 274.09709162 345.99609375 275.47265625 C344.14807921 277.03154205 342.32218734 278.61765813 340.53515625 280.24609375 C335.87602385 284.31566985 332.5818569 285.77504482 326.359375 285.734375 C322.83779082 284.63825277 321.31726526 282.84144533 319 280 C318.43237305 276.49487305 318.43237305 276.49487305 318.51171875 272.51171875 C318.51879349 271.80852005 318.52586823 271.10532135 318.53315735 270.3808136 C318.56100788 268.14859773 318.6237168 265.91894923 318.6875 263.6875 C318.71259549 262.16865619 318.73540648 260.6497728 318.75585938 259.13085938 C318.81079993 255.41974752 318.89700261 251.71012459 319 248 C318.22991482 248.00184359 317.45982964 248.00368717 316.66640854 248.00558662 C297.84097424 248.04994998 279.01555052 248.08294558 260.19007492 248.10362434 C251.08584453 248.11389281 241.98164925 248.12786733 232.87744141 248.15087891 C224.93289802 248.1709496 216.98838008 248.18374853 209.04381204 248.18817699 C204.8457017 248.19076146 200.64766411 248.19674109 196.44957733 248.21146011 C153.66822509 248.35557961 153.66822509 248.35557961 134.875 243.75 C133.50275269 243.42140991 133.50275269 243.42140991 132.1027832 243.08618164 C108.39291798 237.24987543 85.68851993 227.59420446 66 213 C65.46052734 212.61166992 64.92105469 212.22333984 64.36523438 211.82324219 C24.17295539 182.87036098 -3.05471085 138.41924877 -11.57888794 89.69229126 C-14.22450362 72.77810465 -14.34746948 55.52555416 -14.31567383 38.44775391 C-14.31244683 34.81514188 -14.33633486 31.18329727 -14.36132812 27.55078125 C-14.36359568 25.21875101 -14.36430715 22.88671862 -14.36328125 20.5546875 C-14.372491 19.47976044 -14.38170074 18.40483337 -14.39118958 17.29733276 C-14.35704754 11.79844995 -14.18765433 7.70734442 -11 3 C-7.38149613 0.06607794 -4.60901522 -0.65843075 0 0 Z " fill="#000100" transform="translate(48,227)"/>
<path d="M0 0 C0.59039062 0.5259375 1.18078125 1.051875 1.7890625 1.59375 C15.56097213 14.38661392 25.43154595 32.55986065 31.4375 50.1875 C31.66026611 50.83823486 31.88303223 51.48896973 32.11254883 52.15942383 C36.16716529 65.01388612 37.55941198 77.90610209 37.4375 91.3125 C37.43293793 92.38709473 37.43293793 92.38709473 37.42828369 93.48339844 C37.355998 105.04396818 36.42378816 115.91269827 33 127 C32.79101074 127.70930664 32.58202148 128.41861328 32.36669922 129.14941406 C22.77508134 161.09273473 0.2710371 189.16537007 -29.09326172 205.13867188 C-59.04486597 220.6073485 -94.31459909 225.49353398 -127 216 C-127.72783691 215.79101074 -128.45567383 215.58202148 -129.20556641 215.36669922 C-150.08934627 209.1476838 -167.2058576 197.85203566 -183 183 C-183.88558594 182.21109375 -183.88558594 182.21109375 -184.7890625 181.40625 C-207.55545887 160.25831783 -219.39035097 127.61218361 -220.92553711 97.13061523 C-221.62174332 74.44971055 -216.91658204 53.32122852 -207 33 C-206.51660156 32.00484375 -206.03320312 31.0096875 -205.53515625 29.984375 C-199.73895727 18.745208 -191.62156766 9.16845815 -183 0 C-182.4740625 -0.59039062 -181.948125 -1.18078125 -181.40625 -1.7890625 C-160.20997308 -24.60750347 -127.42064385 -36.43126151 -96.89453125 -37.93359375 C-59.38217026 -38.57322277 -27.26391032 -25.63764199 0 0 Z M-174 20 C-193.71572085 43.42769986 -202.1485142 71.60819988 -200 102 C-197.58018979 123.73241874 -189.25598414 144.34268804 -175 161 C-174.32324219 161.80953125 -173.64648438 162.6190625 -172.94921875 163.453125 C-155.30846514 183.88255902 -128.96034185 198.05646301 -101.86376953 200.25439453 C-89.34293638 200.85728446 -77.09557873 200.48583309 -65 197 C-64.2879541 196.79600586 -63.5759082 196.59201172 -62.84228516 196.38183594 C-47.43509133 191.87097203 -34.52262701 185.15954175 -22 175 C-21.14664063 174.31292969 -20.29328125 173.62585938 -19.4140625 172.91796875 C1.1663969 155.42133213 13.78578705 129.63813598 17 103 C19.37105618 73.00626314 11.3528145 45.21541327 -8 22 C-8.66773438 21.19691406 -9.33546875 20.39382812 -10.0234375 19.56640625 C-28.67772129 -2.01734087 -54.63997091 -14.8135125 -83 -17 C-117.44589945 -19.30836258 -151.11603446 -6.32668602 -174 20 Z " fill="#010000" transform="translate(348,165)"/>
<path d="M0 0 C0.05607422 1.86205078 0.05607422 1.86205078 0.11328125 3.76171875 C0.1789595 5.40367511 0.2454062 7.04560087 0.3125 8.6875 C0.34633789 9.91243164 0.34633789 9.91243164 0.38085938 11.16210938 C0.59056243 15.87089606 0.93684233 19.19469961 4 23 C7.57490417 25.38326945 10.09978266 25.2819183 14.22499084 25.25828552 C15.33684593 25.26379908 15.33684593 25.26379908 16.47116274 25.26942402 C18.96269677 25.27942819 21.45400865 25.27524822 23.94555664 25.27124023 C25.72958107 25.2756264 27.51360346 25.28092815 29.29762268 25.28707886 C33.14611628 25.29859676 36.9945547 25.30403966 40.84306526 25.30496025 C46.94339621 25.30690139 53.04361358 25.32496188 59.14390564 25.34571838 C74.31040324 25.39492191 89.47693204 25.42568686 104.64349365 25.44702148 C116.4045009 25.4635994 128.16541152 25.48660124 139.92635435 25.53004223 C145.97362308 25.55167271 152.02070767 25.55988986 158.06801236 25.55764949 C161.85908679 25.55933345 165.65004439 25.57348798 169.44107628 25.59086227 C171.17990889 25.59639474 172.91876643 25.59701017 174.6576004 25.59192467 C190.89282199 25.54947847 206.29023027 27.66367167 221.8125 32.5625 C222.90852539 32.90547119 224.00455078 33.24844238 225.13378906 33.60180664 C253.89049761 42.93252945 281.76396036 60.40114725 301 84 C301.82113281 84.98355469 302.64226562 85.96710938 303.48828125 86.98046875 C313.14316669 98.74193775 321.07223736 111.52004384 327.625 125.25 C328.12132935 126.2860437 328.12132935 126.2860437 328.62768555 127.34301758 C330.40508554 131.21444521 331.51356852 134.76673148 332 139 C329.09994021 136.23985538 326.77799206 133.41210257 324.5 130.125 C297.96522499 93.3092236 258.81534937 69.01210243 215 58 C214.175 57.78730469 213.35 57.57460937 212.5 57.35546875 C204.62072288 55.45404597 196.71109115 54.9305017 188.625 54.6875 C187.46226562 54.65011719 186.29953125 54.61273438 185.1015625 54.57421875 C181.93098317 54.75297973 181.93098317 54.75297973 179.6484375 56.76953125 C177.70368337 59.10418792 177.70368337 59.10418792 177 63 C165.12 63.495 165.12 63.495 153 64 C152.01 66.31 151.02 68.62 150 71 C145.9631135 73.69125767 142.74035825 73.66531344 138 73 C135 71.375 135 71.375 133 69 C132.67 67.02 132.34 65.04 132 63 C124.08 63 116.16 63 108 63 C107.01 60.69 106.02 58.38 105 56 C102.36319003 54.06360696 100.17081203 53.74756772 96.94606018 53.72584534 C96.14844269 53.71587021 95.3508252 53.70589508 94.52903748 53.69561768 C93.66295364 53.694953 92.79686981 53.69428833 91.90454102 53.69360352 C90.98539917 53.68528 90.06625732 53.67695648 89.1192627 53.66838074 C86.08076748 53.64428417 83.04248687 53.63550972 80.00390625 53.62890625 C77.8916772 53.61994083 75.7794488 53.610819 73.66722107 53.60154724 C69.23963883 53.58505644 64.81213224 53.57735675 60.38452148 53.57446289 C54.71030866 53.56907398 49.036806 53.53137294 43.36279392 53.48571873 C39.00047708 53.45598454 34.63833216 53.44874015 30.27592278 53.44773674 C28.18391601 53.44352849 26.091909 53.43107008 24.00000191 53.41021919 C21.07441965 53.3833761 18.15049585 53.38810891 15.22485352 53.40063477 C14.36079391 53.38580048 13.49673431 53.37096619 12.60649109 53.35568237 C8.22750239 53.40909677 6.5242826 53.58865254 2.96466064 56.38150024 C0.81785533 59.24276242 0.35785648 60.55646478 0.29296875 64.08203125 C0.26396484 65.01337891 0.23496094 65.94472656 0.20507812 66.90429688 C0.19927734 67.86400391 0.19347656 68.82371094 0.1875 69.8125 C0.16236328 70.79154297 0.13722656 71.77058594 0.11132812 72.77929688 C0.05261337 75.18660197 0.0162202 77.59209562 0 80 C-4.5090394 77.50453926 -8.30423366 74.403514 -12.25 71.125 C-18.01803763 66.38076726 -23.86120967 61.76211999 -29.8125 57.25 C-34.76671296 53.48312775 -39.70549689 49.70432942 -44.5625 45.8125 C-45.43003906 45.11769531 -46.29757813 44.42289063 -47.19140625 43.70703125 C-47.78824219 43.14371094 -48.38507813 42.58039063 -49 42 C-49 41.34 -49 40.68 -49 40 C-47.51261765 38.64617851 -45.95569449 37.36860114 -44.375 36.125 C-39.886798 32.5344384 -35.4775224 28.87876271 -31.125 25.125 C-29.93501514 24.10142378 -28.7449104 23.07798692 -27.5546875 22.0546875 C-26.96526367 21.54776367 -26.37583984 21.04083984 -25.76855469 20.51855469 C-1.87202572 -0 -1.87202572 -0 0 0 Z " fill="#8AC6FC" transform="translate(115,32)"/>
<path d="M0 0 C2.53978307 3.14421657 5.01442614 6.32885656 7.45019531 9.55419922 C11.72808716 15.20121904 16.1726611 20.58100213 20.98046875 25.79296875 C22.73904907 27.71482152 24.40819775 29.67647489 26.0625 31.6875 C47.71416396 57.0889379 83.25779914 74.13417961 115 82.3125 C115.92361328 82.55500488 116.84722656 82.79750977 117.79882812 83.04736328 C132.55103663 86.65385517 147.56355195 87.30076505 162.67724609 87.25878906 C164.35812022 87.26150882 166.03899315 87.2650752 167.71986389 87.26940918 C172.2210197 87.27840869 176.7220823 87.27504387 181.22323942 87.26865101 C185.95519454 87.26353746 190.68714242 87.26829609 195.4190979 87.27142334 C203.34516822 87.27504255 211.27120102 87.27031273 219.19726562 87.26074219 C228.35776029 87.24980883 237.51816624 87.25342662 246.67865884 87.264395 C254.56947253 87.27346371 262.46025951 87.27475678 270.35107672 87.26951766 C275.05364987 87.26640242 279.75618123 87.26597746 284.45875168 87.27259064 C288.86661143 87.27835922 293.27435601 87.27437627 297.68220329 87.26280212 C299.29954398 87.26015519 300.91689434 87.26092121 302.53423119 87.26532745 C304.73904725 87.2707817 306.94349256 87.26395112 309.14828491 87.25396729 C310.38223181 87.25321323 311.6161787 87.25245918 312.88751793 87.25168228 C315.87007937 87.01050567 317.53461349 86.64280361 320 85 C321.9316073 82.11684303 322.28228176 79.66067434 322.4140625 76.234375 C322.45273437 75.34492188 322.49140625 74.45546875 322.53125 73.5390625 C322.57765625 72.15847656 322.57765625 72.15847656 322.625 70.75 C322.66367187 69.81414062 322.70234375 68.87828125 322.7421875 67.9140625 C322.83624844 65.60956946 322.92189399 63.30507987 323 61 C325.83996278 62.31581437 328.12493201 63.78139543 330.51171875 65.80078125 C331.51211182 66.63863159 331.51211182 66.63863159 332.53271484 67.4934082 C333.24379395 68.0937085 333.95487305 68.69400879 334.6875 69.3125 C340.64819815 74.28834789 346.68432227 79.12581171 352.875 83.8125 C357.80941701 87.55768294 362.72859668 91.3129501 367.5625 95.1875 C368.86380859 96.22970703 368.86380859 96.22970703 370.19140625 97.29296875 C370.78824219 97.85628906 371.38507813 98.41960937 372 99 C372 99.66 372 100.32 372 101 C370.53309441 102.3327188 368.99677499 103.58913869 367.4375 104.8125 C362.69287955 108.60453256 358.07239766 112.50227845 353.5 116.5 C348.28757431 121.04357751 343.02415323 125.50485196 337.6484375 129.85546875 C335.72783693 131.41064532 333.81709005 132.97441046 331.9140625 134.55078125 C330.91117187 135.37964844 329.90828125 136.20851563 328.875 137.0625 C327.96492188 137.81660156 327.05484375 138.57070313 326.1171875 139.34765625 C324 141 324 141 323 141 C322.97421875 139.68644531 322.9484375 138.37289062 322.921875 137.01953125 C322.86558171 135.2838215 322.80823465 133.5481457 322.75 131.8125 C322.73582031 130.94818359 322.72164063 130.08386719 322.70703125 129.19335938 C322.54754608 125.03079645 322.34602987 122.5677507 320.140625 118.94921875 C316.42599306 115.56673455 313.07464455 115.87526539 308.2464447 115.87542725 C307.55577158 115.8740171 306.86509846 115.87260695 306.15349585 115.87115407 C303.8326976 115.86749653 301.51196029 115.87083986 299.19116211 115.87402344 C297.52849276 115.8726286 295.86582377 115.87072925 294.20315552 115.86836243 C290.61497144 115.86386007 287.02679881 115.86200921 283.43861198 115.86190033 C277.73936463 115.86075751 272.04018174 115.8478953 266.34095764 115.83233643 C265.37721519 115.82976357 264.41347274 115.82719072 263.42052597 115.8245399 C261.44879336 115.81927246 259.47706081 115.81398698 257.5053283 115.80868387 C244.24027801 115.77368922 230.97530538 115.74700247 217.71020508 115.74951172 C208.76237092 115.75111331 199.81475542 115.73475426 190.8669911 115.69880509 C186.14327522 115.68053578 181.4199233 115.67083115 176.69618034 115.68328094 C123.7188027 115.80899716 77.81025374 102.68531885 39 65 C36.52501772 62.43817623 34.25013244 59.76047176 32 57 C31.17886719 56.01644531 30.35773438 55.03289062 29.51171875 54.01953125 C18.62497634 40.76244633 0 17.6904757 0 0 Z " fill="#48DB88" transform="translate(64,339)"/>
<path d="M0 0 C2.5642661 1.79969134 3.35119499 3.1810753 5 6 C5.3125 9.375 5.3125 9.375 5 12 C6.27875 12.226875 7.5575 12.45375 8.875 12.6875 C16.7988335 14.44974057 25.2653094 18.24675742 30.375 24.75 C31.36397669 28.31031608 31.10513634 31.4823438 30 35 C27.45859038 37.91514632 25.44160537 38.84413928 21.8125 40.125 C16.9006767 39.96395661 14.25585494 38.13046215 10.234375 35.4453125 C7.97822025 33.85399696 7.97822025 33.85399696 5 33 C5.495 52.8 5.495 52.8 6 73 C13.92 76.465 13.92 76.465 22 80 C30.73747542 86.69873115 38.12873015 94.77238088 40 106 C41.16272955 120.35244283 37.94886827 132.61376602 29 144 C22.88561041 150.89214952 15.55904399 154.75812394 7 158 C6.34 158 5.68 158 5 158 C5.0825 159.19625 5.165 160.3925 5.25 161.625 C5.26583495 166.08253875 3.8659892 168.5439542 1 172 C-2.50580076 173.75290038 -6.18379058 173.67770616 -10 173 C-13.22821371 170.3647235 -14.73635815 168.93568621 -15.296875 164.8203125 C-15.3125 162.625 -15.3125 162.625 -15 159 C-15.84820312 158.93683594 -16.69640625 158.87367188 -17.5703125 158.80859375 C-29.45809418 157.5675616 -39.6669494 153.99607813 -48 145 C-48.33 144.67 -48.66 144.34 -49 144 C-49.29322866 141.06771337 -49.50004247 138.85508117 -49 136 C-46.5625 133.0625 -46.5625 133.0625 -44 131 C-43.67 130.67 -43.34 130.34 -43 130 C-37.42493246 129.51760849 -34.3196949 130.52184761 -29.5625 133.375 C-24.39353464 136.45735235 -21.1954034 137.45114915 -15 139 C-15 121.51 -15 104.02 -15 86 C-16.65 85.67 -18.3 85.34 -20 85 C-30.61436982 79.31871245 -40.16963988 72.73954004 -44.5 61.0625 C-47.43366547 50.68989709 -46.22640523 41.91962168 -42 32 C-36.64295622 23.11579372 -28.98597999 16.13792347 -19 13 C-17.68 13 -16.36 13 -15 13 C-15.0825 11.783125 -15.165 10.56625 -15.25 9.3125 C-15.26200396 5.9273826 -15.03913893 5.06131766 -13.125 2.0625 C-9.07715683 -1.86628896 -5.25082944 -1.46661098 0 0 Z " fill="#030200" transform="translate(263,170)"/>
<path d="M0 0 C6.77469671 2.25823224 6.77469671 2.25823224 9.75 5.875 C10.32234375 6.55304688 10.8946875 7.23109375 11.484375 7.9296875 C15.13621455 12.91802504 15.77739683 16.91355163 15 23 C12.89331857 30.3190891 9.68857522 36.90055067 3 41 C2.01 41 1.02 41 0 41 C0 27.47 0 13.94 0 0 Z " fill="#FBBE34" transform="translate(268,265)"/>
<path d="M0 0 C3.6795289 0.66900526 5.6057097 1.18651391 8.4375 3.625 C10.63815096 7.38740325 11.6400847 9.47702002 10.875 13.8125 C9.27558796 16.94178443 8.37735085 18.66509944 5.4375 20.625 C0.77834425 21.48005106 -2.51741186 21.27818009 -6.5625 18.75 C-9.06509299 16.09099495 -9.49908357 15.08703395 -10 11.4375 C-9.48982377 6.99167853 -8.37353274 5.12906148 -5.34375 1.94921875 C-3.5625 0.625 -3.5625 0.625 0 0 Z " fill="#010203" transform="translate(256.5625,84.375)"/>
<path d="M0 0 C0 9.9 0 19.8 0 30 C-4.49507913 27.75246044 -7.42779888 25.24600161 -10.3125 21.125 C-11.86172052 16.33650021 -11.38102041 12.30964761 -9.3125 7.8125 C-7.28867236 4.1033497 -4.61036562 0 0 0 Z " fill="#EAB130" transform="translate(248,204)"/>
</svg>
